/* XPM */
static char *brick1[] = {
/* columns rows colors chars-per-pixel */
"32 32 11 1 ",
"  c #BC5C24",
". c black",
"X c #6D2901",
"o c #BE8F74",
"O c #A76239",
"+ c #AE9384",
"@ c #AC6035",
"# c #B65E2B",
"$ c #BA5D26",
"% c #C45818",
"& c #B85D28",
/* pixels */
" oooooooooooooo.Xoooooooooooooo.",
"X             o.XX            o.",
"X             o.XXX           o.",
"X             o.XXXX          o.",
"X             o.XXXXX         o.",
"X             o.XX  XX        o.",
"XXXXXXXXXXXXXX ..XXXXXXXXXXXXX .",
"................................",
"ooooooo.XoooooX..oooooo...Xooooo",
"      o.X     oXX #$  o..X      ",
"      o.X     oo  #$  o.X       ",
"      o.X         #$ oo.X  X    ",
"      o.X   X     #$  o.XX      ",
"      o.X  %  X   &$   ..XXX    ",
"XXXXXX .XXXXXXXXXXXXXX....XXXXXX",
"................................",
"Ooooooooo+++o+o.Xo++XX.+oXo++o+.",
"XO O   OO %%% o.X    +o  +    +.",
"XOOOOOOOO O O o.X O  O        +.",
"XO O   oX O   o.X OOO O  O    +.",
"XOO O O oXX O o.X   # OOOOO   o.",
"XOO OOO  oo   o.X   #OO###    +.",
"XXXXXXXXXXXXXX .XXXXXXXXXXXXXX .",
"................................",
"ooooooo. oooooooooooooo. ooooooo",
"O OO  o.X  O    O     o.X O     ",
"OOOO Oo.X  O@OOOOOO O o.X OOO O ",
"  O OOo.X OO O O@     o.X OOO OO",
"OO OO o.X  @@ @O O@OO o.XOOOO OO",
" O  O o.X @@O @@@OO O o.X   O   ",
"XXXXXX .XXXXXXXXXXXXXX .XXXXXXXX",
"................................"
};
