/* XPM */
static char *pic[] = {
/* columns rows colors chars-per-pixel */
"32 32 3 1 ",
"  c #848284",
". c black",
"X c #C6C3C6",
/* pixels */
"................................",
".XXXXXXXXXXXXXXXXXXXXXXXXXXXXXX.",
". XXXXXXXXXXXXXXXXXXXXXXXXXXXX .",
".  XXXXXXXXXXXXXXXXXXXXXXXXXX  .",
".   XXXXXXXXXXXXXXXXXXXXXXXX   .",
".    XXXXXXXXXXXXXXXXXXXXXX    .",
".     XXXXXXXXXXXXXXXXXXXX     .",
".      XXXXXXXXXXXXXXXXXX      .",
".       XXXXXXXXXXXXXXXX       .",
".        XXXXXXXXXXXXXX        .",
".         XXXXXXXXXXXX         .",
".          XXXXXXXXXX          .",
".           XXXXXXXX           .",
".            XXXXXX            .",
".             XXXX             .",
".              XX              .",
".              ..              .",
".             ....             .",
".            ......            .",
".           ........           .",
".          ..........          .",
".         ............         .",
".        ..............        .",
".       ................       .",
".      ..................      .",
".     ....................     .",
".    ......................    .",
".   ........................   .",
".  ..........................  .",
". ............................ .",
"................................",
"................................"
};
