/* XPM */
static char *wall1[] = {
/* columns rows colors chars-per-pixel */
"64 64 4 1 ",
"  c gray72",
". c black",
"X c gray100",
"o c gray51",
/* pixels */
" XXXXXXXXXXXXXX. XXXXXXXXXXXXXX. XXXXXXXXXXXXXX. XXXXXXXXXXXXXX.",
"o             X.o             X.o             X.o             X.",
"o             X.o             X.o             X.o             X.",
"o             X.o             X.o             X.o             X.",
"o             X.o             X.o             X.o             X.",
"o             X.o             X.o             X.o             X.",
"oooooooooooooo .oooooooooooooo .oooooooooooooo .oooooooooooooo .",
"................................................................",
"XXXXXXX. XXXXXXXXXXXXXX. XXXXXXXXXXXXXX. XXXXXXXXXXXXXX. XXXXXXX",
"      X.o             X.o             X.o             X.o       ",
"      X.o             X.o             X.o             X.o       ",
"      X.o             X.o             X.o             X.o       ",
"      X.o             X.o             X.o             X.o       ",
"      X.o             X.o             X.o             X.o       ",
"oooooo .oooooooooooooo .oooooooooooooo .oooooooooooooo .oooooooo",
"................................................................",
" XXXXXXXXXXXXXX. XXXXXXXXXXXXXX. XXXXXXXXXXXXXX. XXXXXXXXXXXXXX.",
"o             X.o             X.o             X.o             X.",
"o             X.o             X.o             X.o             X.",
"o             X.o             X.o             X.o             X.",
"o             X.o             X.o             X.o             X.",
"o             X.o             X.o             X.o             X.",
"oooooooooooooo .oooooooooooooo .oooooooooooooo .oooooooooooooo .",
"................................................................",
"XXXXXXX. XXXXXXXXXXXXXX. XXXXXXXXXXXXXX. XXXXXXXXXXXXXX. XXXXXXX",
"      X.o             X.o             X.o             X.o       ",
"      X.o             X.o             X.o             X.o       ",
"      X.o             X.o             X.o             X.o       ",
"      X.o             X.o             X.o             X.o       ",
"      X.o             X.o             X.o             X.o       ",
"oooooo .oooooooooooooo .oooooooooooooo .oooooooooooooo .oooooooo",
"................................................................",
" XXXXXXXXXXXXXX. XXXXXXXXXXXXXX. XXXXXXXXXXXXXX. XXXXXXXXXXXXXX.",
"o             X.o             X.o             X.o             X.",
"o             X.o             X.o             X.o             X.",
"o             X.o             X.o             X.o             X.",
"o             X.o             X.o             X.o             X.",
"o             X.o             X.o             X.o             X.",
"oooooooooooooo .oooooooooooooo .oooooooooooooo .oooooooooooooo .",
"................................................................",
"XXXXXXX. XXXXXXXXXXXXXX. XXXXXXXXXXXXXX. XXXXXXXXXXXXXX. XXXXXXX",
"      X.o             X.o             X.o             X.o       ",
"      X.o             X.o             X.o             X.o       ",
"      X.o             X.o             X.o             X.o       ",
"      X.o             X.o             X.o             X.o       ",
"      X.o             X.o             X.o             X.o       ",
"oooooo .oooooooooooooo .oooooooooooooo .oooooooooooooo .oooooooo",
"................................................................",
" XXXXXXXXXXXXXX. XXXXXXXXXXXXXX. XXXXXXXXXXXXXX. XXXXXXXXXXXXXX.",
"o             X.o             X.o             X.o             X.",
"o             X.o             X.o             X.o             X.",
"o             X.o             X.o             X.o             X.",
"o             X.o             X.o             X.o             X.",
"o             X.o             X.o             X.o             X.",
"oooooooooooooo .oooooooooooooo .oooooooooooooo .oooooooooooooo .",
"................................................................",
"XXXXXXX. XXXXXXXXXXXXXX. XXXXXXXXXXXXXX. XXXXXXXXXXXXXX. XXXXXXX",
"      X.o             X.o             X.o             X.o       ",
"      X.o             X.o             X.o             X.o       ",
"      X.o             X.o             X.o             X.o       ",
"      X.o             X.o             X.o             X.o       ",
"      X.o             X.o             X.o             X.o       ",
"oooooo .oooooooooooooo .oooooooooooooo .oooooooooooooo .oooooooo",
"................................................................"
};
